<svg id="eEIQysWphCx1" xmlns="http://www.w3.org/2000/svg" xmlns:xlink="http://www.w3.org/1999/xlink" viewBox="0 0 1150 550" shape-rendering="geometricPrecision" text-rendering="geometricPrecision"><ellipse rx="160" ry="120" transform="matrix(-.085829 0 0-.113867 90.959008 264.204848)" fill="#d2dbed" stroke-width="0"/><ellipse rx="160" ry="120" transform="matrix(.085829 0 0 0.113867 69.493728 280.384015)" fill="#d2dbed" stroke-width="0"/><ellipse rx="160" ry="120" transform="matrix(.085829 0 0 0.113867 69.493728 351.86203)" fill="#d2dbed" stroke-width="0"/><ellipse rx="160" ry="120" transform="matrix(.085829 0 0 0.113867 177.98046 367.855028)" fill="#d2dbed" stroke-width="0"/><ellipse rx="160" ry="120" transform="matrix(.085829 0 0 0.113867 198.44574 351.86203)" fill="#d2dbed" stroke-width="0"/><ellipse rx="160" ry="120" transform="matrix(.085829 0 0 0.113867 198.44574 317.033797)" fill="#d2dbed" stroke-width="0"/><ellipse rx="160" ry="120" transform="matrix(.085829 0 0 0.113867 198.713102 279.384015)" fill="#d2dbed" stroke-width="0"/><ellipse rx="160" ry="120" transform="matrix(.085829 0 0 0.113867 134.969734 367.855028)" fill="#d2dbed" stroke-width="0"/><ellipse rx="160" ry="120" transform="matrix(.085829 0 0 0.113867 90.959009 367.855028)" fill="#d2dbed" stroke-width="0"/><ellipse rx="160" ry="120" transform="matrix(.085829 0 0 0.113867 69.493728 317.033797)" fill="#d2dbed" stroke-width="0"/><ellipse rx="160" ry="120" transform="matrix(.085829 0 0 0.113867 177.98046 264.204849)" fill="#d2dbed" stroke-width="0"/><ellipse rx="160" ry="120" transform="matrix(.085829 0 0 0.113867 133.969734 264.204849)" fill="#d2dbed" stroke-width="0"/><rect width="43" height="44" rx="0" ry="0" transform="matrix(2.998884 0 0 2.400965 69.493728 263.212565)" fill="#d8ba94" stroke="#070707" stroke-width="0.1"/><ellipse rx="160" ry="120" transform="matrix(-.085829 0 0-.113867 91.22637 55.077277)" fill="#d2dbed" stroke-width="0"/><ellipse rx="160" ry="120" transform="matrix(-.085829 0 0-.113867 320.22637 56.081136)" fill="#d2dbed" stroke-width="0"/><ellipse rx="160" ry="120" transform="matrix(-.085829 0 0-.113867 998.22637 57.084995)" fill="#d2dbed" stroke-width="0"/><ellipse rx="160" ry="120" transform="matrix(-.085829 0 0-.113867 999.092689 280.384015)" fill="#d2dbed" stroke-width="0"/><ellipse rx="160" ry="120" transform="matrix(-.085829 0 0-.113867 778.092689 58.088854)" fill="#d2dbed" stroke-width="0"/><ellipse rx="160" ry="120" transform="matrix(.085829 0 0 0.113867 69.76109 71.256444)" fill="#d2dbed" stroke-width="0"/><ellipse rx="160" ry="120" transform="matrix(.085829 0 0 0.113867 298.76109 72.260303)" fill="#d2dbed" stroke-width="0"/><ellipse rx="160" ry="120" transform="matrix(.085829 0 0 0.113867 976.76109 73.264162)" fill="#d2dbed" stroke-width="0"/><ellipse rx="160" ry="120" transform="matrix(.085829 0 0 0.113867 977.627409 296.563182)" fill="#d2dbed" stroke-width="0"/><ellipse rx="160" ry="120" transform="matrix(.085829 0 0 0.113867 756.627409 74.268021)" fill="#d2dbed" stroke-width="0"/><ellipse rx="160" ry="120" transform="matrix(.085829 0 0 0.113867 69.76109 142.734459)" fill="#d2dbed" stroke-width="0"/><ellipse rx="160" ry="120" transform="matrix(.085829 0 0 0.113867 298.76109 143.738318)" fill="#d2dbed" stroke-width="0"/><ellipse rx="160" ry="120" transform="matrix(.085829 0 0 0.113867 976.76109 144.742177)" fill="#d2dbed" stroke-width="0"/><ellipse rx="160" ry="120" transform="matrix(.085829 0 0 0.113867 977.627409 368.041197)" fill="#d2dbed" stroke-width="0"/><ellipse rx="160" ry="120" transform="matrix(.085829 0 0 0.113867 756.627409 145.746036)" fill="#d2dbed" stroke-width="0"/><ellipse rx="160" ry="120" transform="matrix(.085829 0 0 0.113867 178.247822 158.727457)" fill="#d2dbed" stroke-width="0"/><ellipse rx="160" ry="120" transform="matrix(.085829 0 0 0.113867 407.247822 159.731316)" fill="#d2dbed" stroke-width="0"/><ellipse rx="160" ry="120" transform="matrix(.085829 0 0 0.113867 1085.247822 160.735175)" fill="#d2dbed" stroke-width="0"/><ellipse rx="160" ry="120" transform="matrix(.085829 0 0 0.113867 1086.114141 384.034195)" fill="#d2dbed" stroke-width="0"/><ellipse rx="160" ry="120" transform="matrix(.085829 0 0 0.113867 865.114141 161.739034)" fill="#d2dbed" stroke-width="0"/><ellipse rx="160" ry="120" transform="matrix(.085829 0 0 0.113867 198.713102 142.734459)" fill="#d2dbed" stroke-width="0"/><ellipse rx="160" ry="120" transform="matrix(.085829 0 0 0.113867 427.713102 143.738318)" fill="#d2dbed" stroke-width="0"/><ellipse rx="160" ry="120" transform="matrix(.085829 0 0 0.113867 1105.713102 144.742177)" fill="#d2dbed" stroke-width="0"/><ellipse rx="160" ry="120" transform="matrix(.085829 0 0 0.113867 1106.579421 368.041197)" fill="#d2dbed" stroke-width="0"/><ellipse rx="160" ry="120" transform="matrix(.085829 0 0 0.113867 885.579421 145.746036)" fill="#d2dbed" stroke-width="0"/><ellipse rx="160" ry="120" transform="matrix(.085829 0 0 0.113867 198.713102 107.906226)" fill="#d2dbed" stroke-width="0"/><ellipse rx="160" ry="120" transform="matrix(.085829 0 0 0.113867 427.713102 108.910085)" fill="#d2dbed" stroke-width="0"/><ellipse rx="160" ry="120" transform="matrix(.085829 0 0 0.113867 1105.713102 109.913944)" fill="#d2dbed" stroke-width="0"/><ellipse rx="160" ry="120" transform="matrix(.085829 0 0 0.113867 1106.579421 333.212964)" fill="#d2dbed" stroke-width="0"/><ellipse rx="160" ry="120" transform="matrix(.085829 0 0 0.113867 885.579421 110.917803)" fill="#d2dbed" stroke-width="0"/><ellipse rx="160" ry="120" transform="matrix(.085829 0 0 0.113867 198.980464 70.256444)" fill="#d2dbed" stroke-width="0"/><ellipse rx="160" ry="120" transform="matrix(.085829 0 0 0.113867 427.980464 71.260303)" fill="#d2dbed" stroke-width="0"/><ellipse rx="160" ry="120" transform="matrix(.085829 0 0 0.113867 1105.980464 72.264162)" fill="#d2dbed" stroke-width="0"/><ellipse rx="160" ry="120" transform="matrix(.085829 0 0 0.113867 1106.846783 295.563182)" fill="#d2dbed" stroke-width="0"/><ellipse rx="160" ry="120" transform="matrix(.085829 0 0 0.113867 885.846783 73.268021)" fill="#d2dbed" stroke-width="0"/><ellipse rx="160" ry="120" transform="matrix(.085829 0 0 0.113867 135.237096 158.727457)" fill="#d2dbed" stroke-width="0"/><ellipse rx="160" ry="120" transform="matrix(.085829 0 0 0.113867 364.237096 159.731316)" fill="#d2dbed" stroke-width="0"/><ellipse rx="160" ry="120" transform="matrix(.085829 0 0 0.113867 1042.237096 160.735175)" fill="#d2dbed" stroke-width="0"/><ellipse rx="160" ry="120" transform="matrix(.085829 0 0 0.113867 1043.103415 384.034195)" fill="#d2dbed" stroke-width="0"/><ellipse rx="160" ry="120" transform="matrix(.085829 0 0 0.113867 822.103415 161.739034)" fill="#d2dbed" stroke-width="0"/><ellipse rx="160" ry="120" transform="matrix(.085829 0 0 0.113867 91.226371 158.727457)" fill="#d2dbed" stroke-width="0"/><ellipse rx="160" ry="120" transform="matrix(.085829 0 0 0.113867 320.226371 159.731316)" fill="#d2dbed" stroke-width="0"/><ellipse rx="160" ry="120" transform="matrix(.085829 0 0 0.113867 998.226371 160.735175)" fill="#d2dbed" stroke-width="0"/><ellipse rx="160" ry="120" transform="matrix(.085829 0 0 0.113867 999.09269 384.034195)" fill="#d2dbed" stroke-width="0"/><ellipse rx="160" ry="120" transform="matrix(.085829 0 0 0.113867 778.09269 161.739034)" fill="#d2dbed" stroke-width="0"/><ellipse rx="160" ry="120" transform="matrix(.085829 0 0 0.113867 69.76109 107.906226)" fill="#d2dbed" stroke-width="0"/><ellipse rx="160" ry="120" transform="matrix(.085829 0 0 0.113867 298.76109 108.910085)" fill="#d2dbed" stroke-width="0"/><ellipse rx="160" ry="120" transform="matrix(.085829 0 0 0.113867 976.76109 109.913944)" fill="#d2dbed" stroke-width="0"/><ellipse rx="160" ry="120" transform="matrix(.085829 0 0 0.113867 977.627409 333.212964)" fill="#d2dbed" stroke-width="0"/><ellipse rx="160" ry="120" transform="matrix(.085829 0 0 0.113867 756.627409 110.917803)" fill="#d2dbed" stroke-width="0"/><ellipse rx="160" ry="120" transform="matrix(.085829 0 0 0.113867 178.247822 55.077278)" fill="#d2dbed" stroke-width="0"/><ellipse rx="160" ry="120" transform="matrix(.085829 0 0 0.113867 407.247822 56.081137)" fill="#d2dbed" stroke-width="0"/><ellipse rx="160" ry="120" transform="matrix(.085829 0 0 0.113867 1085.247822 57.084996)" fill="#d2dbed" stroke-width="0"/><ellipse rx="160" ry="120" transform="matrix(.085829 0 0 0.113867 1086.114141 280.384016)" fill="#d2dbed" stroke-width="0"/><ellipse rx="160" ry="120" transform="matrix(.085829 0 0 0.113867 865.114141 58.088855)" fill="#d2dbed" stroke-width="0"/><ellipse rx="160" ry="120" transform="matrix(.085829 0 0 0.113867 134.237096 55.077278)" fill="#d2dbed" stroke-width="0"/><ellipse rx="160" ry="120" transform="matrix(.085829 0 0 0.113867 363.237096 56.081137)" fill="#d2dbed" stroke-width="0"/><ellipse rx="160" ry="120" transform="matrix(.085829 0 0 0.113867 1041.237096 57.084996)" fill="#d2dbed" stroke-width="0"/><ellipse rx="160" ry="120" transform="matrix(.085829 0 0 0.113867 1042.103415 280.384016)" fill="#d2dbed" stroke-width="0"/><ellipse rx="160" ry="120" transform="matrix(.085829 0 0 0.113867 821.103415 58.088855)" fill="#d2dbed" stroke-width="0"/><rect width="43" height="44" rx="0" ry="0" transform="matrix(2.998884 0 0 2.400965 69.76109 54.084994)" fill="#d8ba94" stroke="#070707" stroke-width="0.1"/><rect width="43" height="44" rx="0" ry="0" transform="matrix(2.998884 0 0 2.400965 298.76109 55.088853)" fill="#d8ba94" stroke="#070707" stroke-width="0.1"/><rect width="43" height="44" rx="0" ry="0" transform="matrix(2.998884 0 0 2.400965 976.76109 56.092712)" fill="#d8ba94" stroke="#070707" stroke-width="0.1"/><rect width="43" height="44" rx="0" ry="0" transform="matrix(2.998884 0 0 2.400965 977.627409 279.391732)" fill="#d8ba94" stroke="#070707" stroke-width="0.1"/><rect width="43" height="44" rx="0" ry="0" transform="matrix(2.998884 0 0 2.400965 756.627409 57.096571)" fill="#d8ba94" stroke="#070707" stroke-width="0.1"/></svg>